<?xml version="1.0" encoding="UTF-8" standalone="no"?>
<!-- Created with Inkscape (http://www.inkscape.org/) -->

<svg
   xmlns:dc="http://purl.org/dc/elements/1.1/"
   xmlns:cc="http://creativecommons.org/ns#"
   xmlns:rdf="http://www.w3.org/1999/02/22-rdf-syntax-ns#"
   xmlns:svg="http://www.w3.org/2000/svg"
   xmlns="http://www.w3.org/2000/svg"
   xmlns:sodipodi="http://sodipodi.sourceforge.net/DTD/sodipodi-0.dtd"
   xmlns:inkscape="http://www.inkscape.org/namespaces/inkscape"
   version="1.1"
   id="svg2"
   xml:space="preserve"
   width="666.66669"
   height="666.66669"
   viewBox="0 0 666.66669 666.66669"
   sodipodi:docname="home_wallet.svg"
   inkscape:version="0.92.1 r15371"><metadata
     id="metadata8"><rdf:RDF><cc:Work
         rdf:about=""><dc:format>image/svg+xml</dc:format><dc:type
           rdf:resource="http://purl.org/dc/dcmitype/StillImage" /><dc:title /></cc:Work></rdf:RDF></metadata><defs
     id="defs6"><marker
       inkscape:stockid="Arrow1Lstart"
       orient="auto"
       refY="0.0"
       refX="0.0"
       id="marker7157"
       style="overflow:visible"
       inkscape:isstock="true"><path
         id="path7155"
         d="M 0.0,0.0 L 5.0,-5.0 L -12.5,0.0 L 5.0,5.0 L 0.0,0.0 z "
         style="fill-rule:evenodd;stroke:#b384e1;stroke-width:1pt;stroke-opacity:1;fill:#b384e1;fill-opacity:1"
         transform="scale(0.8) translate(12.5,0)" /></marker><marker
       inkscape:stockid="Arrow1Lstart"
       orient="auto"
       refY="0.0"
       refX="0.0"
       id="marker7093"
       style="overflow:visible"
       inkscape:isstock="true"><path
         id="path7091"
         d="M 0.0,0.0 L 5.0,-5.0 L -12.5,0.0 L 5.0,5.0 L 0.0,0.0 z "
         style="fill-rule:evenodd;stroke:#b384e1;stroke-width:1pt;stroke-opacity:1;fill:#b384e1;fill-opacity:1"
         transform="scale(0.8) translate(12.5,0)" /></marker><marker
       inkscape:stockid="Arrow1Lstart"
       orient="auto"
       refY="0.0"
       refX="0.0"
       id="marker7035"
       style="overflow:visible"
       inkscape:isstock="true"><path
         id="path7033"
         d="M 0.0,0.0 L 5.0,-5.0 L -12.5,0.0 L 5.0,5.0 L 0.0,0.0 z "
         style="fill-rule:evenodd;stroke:#b384e1;stroke-width:1pt;stroke-opacity:1;fill:#b384e1;fill-opacity:1"
         transform="scale(0.8) translate(12.5,0)" /></marker><marker
       inkscape:stockid="Arrow1Lstart"
       orient="auto"
       refY="0.0"
       refX="0.0"
       id="marker6983"
       style="overflow:visible"
       inkscape:isstock="true"><path
         id="path6981"
         d="M 0.0,0.0 L 5.0,-5.0 L -12.5,0.0 L 5.0,5.0 L 0.0,0.0 z "
         style="fill-rule:evenodd;stroke:#b384e1;stroke-width:1pt;stroke-opacity:1;fill:#b384e1;fill-opacity:1"
         transform="scale(0.8) translate(12.5,0)" /></marker><marker
       inkscape:stockid="Arrow1Lstart"
       orient="auto"
       refY="0.0"
       refX="0.0"
       id="marker6937"
       style="overflow:visible"
       inkscape:isstock="true"><path
         id="path6935"
         d="M 0.0,0.0 L 5.0,-5.0 L -12.5,0.0 L 5.0,5.0 L 0.0,0.0 z "
         style="fill-rule:evenodd;stroke:#b384e1;stroke-width:1pt;stroke-opacity:1;fill:#b384e1;fill-opacity:1"
         transform="scale(0.8) translate(12.5,0)" /></marker><marker
       inkscape:isstock="true"
       style="overflow:visible"
       id="marker6803"
       refX="0.0"
       refY="0.0"
       orient="auto"
       inkscape:stockid="Arrow1Lstart"><path
         transform="scale(0.8) translate(12.5,0)"
         style="fill-rule:evenodd;stroke:#b384e1;stroke-width:1pt;stroke-opacity:1;fill:#b384e1;fill-opacity:1"
         d="M 0.0,0.0 L 5.0,-5.0 L -12.5,0.0 L 5.0,5.0 L 0.0,0.0 z "
         id="path6801" /></marker><marker
       inkscape:isstock="true"
       style="overflow:visible"
       id="marker6769"
       refX="0.0"
       refY="0.0"
       orient="auto"
       inkscape:stockid="Arrow1Lstart"><path
         transform="scale(0.8) translate(12.5,0)"
         style="fill-rule:evenodd;stroke:#b384e1;stroke-width:1pt;stroke-opacity:1;fill:#b384e1;fill-opacity:1"
         d="M 0.0,0.0 L 5.0,-5.0 L -12.5,0.0 L 5.0,5.0 L 0.0,0.0 z "
         id="path6767" /></marker><marker
       inkscape:isstock="true"
       style="overflow:visible"
       id="marker6741"
       refX="0.0"
       refY="0.0"
       orient="auto"
       inkscape:stockid="Arrow1Lstart"><path
         transform="scale(0.8) translate(12.5,0)"
         style="fill-rule:evenodd;stroke:#b384e1;stroke-width:1pt;stroke-opacity:1;fill:#b384e1;fill-opacity:1"
         d="M 0.0,0.0 L 5.0,-5.0 L -12.5,0.0 L 5.0,5.0 L 0.0,0.0 z "
         id="path6739" /></marker><marker
       inkscape:isstock="true"
       style="overflow:visible"
       id="marker6719"
       refX="0.0"
       refY="0.0"
       orient="auto"
       inkscape:stockid="Arrow1Lstart"><path
         transform="scale(0.8) translate(12.5,0)"
         style="fill-rule:evenodd;stroke:#b384e1;stroke-width:1pt;stroke-opacity:1;fill:#b384e1;fill-opacity:1"
         d="M 0.0,0.0 L 5.0,-5.0 L -12.5,0.0 L 5.0,5.0 L 0.0,0.0 z "
         id="path6717" /></marker><clipPath
       clipPathUnits="userSpaceOnUse"
       id="clipPath20"><path
         d="M 0,500 H 500 V 0 H 0 Z"
         id="path18"
         inkscape:connector-curvature="0" /></clipPath><clipPath
       clipPathUnits="userSpaceOnUse"
       id="clipPath32"><path
         d="M 0,500 H 500 V 0 H 0 Z"
         id="path30"
         inkscape:connector-curvature="0" /></clipPath><clipPath
       clipPathUnits="userSpaceOnUse"
       id="clipPath760"><path
         d="M 0,0 H 500 V 500 H 0 Z"
         id="path758"
         inkscape:connector-curvature="0" /></clipPath><clipPath
       clipPathUnits="userSpaceOnUse"
       id="clipPath880"><path
         d="M 0,500 H 500 V 0 H 0 Z"
         id="path878"
         inkscape:connector-curvature="0" /></clipPath></defs><sodipodi:namedview
     pagecolor="#ffffff"
     bordercolor="#666666"
     borderopacity="1"
     objecttolerance="10"
     gridtolerance="10"
     guidetolerance="10"
     inkscape:pageopacity="0"
     inkscape:pageshadow="2"
     inkscape:window-width="1366"
     inkscape:window-height="704"
     id="namedview4"
     showgrid="false"
     inkscape:zoom="2.832"
     inkscape:cx="240.9785"
     inkscape:cy="581.48416"
     inkscape:window-x="0"
     inkscape:window-y="27"
     inkscape:window-maximized="1"
     inkscape:current-layer="g28" /><g
     id="g10"
     inkscape:groupmode="layer"
     inkscape:label="348963-PAPP04-435"
     transform="matrix(1.3333333,0,0,-1.3333333,0,666.66667)"
     style="display:inline"><g
       id="g26"><g
         id="g28"
         clip-path="url(#clipPath32)"><g
           id="g34"
           transform="translate(229.5,430.8055)" /><g
           id="g38"
           transform="translate(362.5,425.8055)"><path
             d="M 0,0 C 0,-25.129 -20.371,-45.5 -45.5,-45.5 -70.629,-45.5 -91,-25.129 -91,0 -91,25.129 -70.629,45.5 -45.5,45.5 -20.371,45.5 0,25.129 0,0"
             style="fill:#9256b6;fill-opacity:0.46666667;fill-rule:nonzero;stroke:none"
             id="path40"
             inkscape:connector-curvature="0" /></g><g
           id="g42"
           transform="translate(123.5,310.3055)"><path
             d="M 0,0 C 0,-25.129 -20.371,-45.5 -45.5,-45.5 -70.629,-45.5 -91,-25.129 -91,0 -91,25.129 -70.629,45.5 -45.5,45.5 -20.371,45.5 0,25.129 0,0"
             style="fill:#9256b6;fill-opacity:0.46666667;fill-rule:nonzero;stroke:none"
             id="path44"
             inkscape:connector-curvature="0" /></g><g
           id="g46"
           transform="translate(124,146.3055)" /><g
           id="g50"
           transform="translate(468.5,155.3055)" /><g
           id="g54"
           transform="translate(447.5,310.3055)"><path
             d="m 0,0 c 0,-24.301 -19.7,-44 -44,-44 -24.301,0 -44,19.699 -44,44 0,24.3 19.699,44 44,44 C -19.7,44 0,24.3 0,0"
             style="fill:#9256b6;fill-opacity:0.46666667;fill-rule:nonzero;stroke:none"
             id="path56"
             inkscape:connector-curvature="0" /></g><g
           id="g114"
           transform="translate(133.0982,182.349)"><path
             d="M 0,0 35.742,27.375"
             style="fill:none;stroke:#b384e1;stroke-width:2.00004142;stroke-linecap:round;stroke-linejoin:round;stroke-miterlimit:10;stroke-dasharray:2.00004142, 4.00008283000000020;stroke-opacity:1;stroke-dashoffset:0;opacity:0.5"
             id="path116"
             inkscape:connector-curvature="0" /></g><g
           id="g118"
           transform="translate(351.529,433.9075)"><path
             d="m 0,0 c -0.44,8.534 -7.478,15.323 -16.121,15.323 -3.695,0 -7.09,-1.254 -9.812,-3.34 -3.023,7.283 -10.197,12.408 -18.573,12.408 -11.104,0 -20.106,-9.002 -20.106,-20.106 0,-1.406 0.147,-2.778 0.422,-4.103 -6.07,-2.875 -10.277,-9.038 -10.277,-16.2 0,-9.907 8.03,-17.938 17.937,-17.938 h 48.491 c 9.906,0 17.937,8.031 17.937,17.938 C 9.898,-9.006 5.865,-2.949 0,0"
             style="fill:#ffffff;fill-opacity:1;fill-rule:nonzero;stroke:none"
             id="path120"
             inkscape:connector-curvature="0" /></g><g
           id="g122"
           transform="translate(343.4897,412.7017)"><path
             d="m 0,0 h -48.491 c -7.666,0 -14.19,4.818 -16.758,11.583 -0.761,-1.985 -1.179,-4.14 -1.179,-6.396 0,-9.906 8.031,-17.937 17.937,-17.937 H 0 c 9.907,0 17.937,8.031 17.937,17.937 0,2.254 -0.421,4.407 -1.181,6.392 C 14.187,4.815 7.664,0 0,0"
             style="fill:#cecee9;fill-opacity:1;fill-rule:nonzero;stroke:none"
             id="path124"
             inkscape:connector-curvature="0" /></g><g
           id="g126"
           transform="translate(350.5971,411.7252)"><path
             d="M 0,0 -16.488,17.4 -32.977,0 h 7.114 V -23.089 H -7.114 V 0 Z"
             style="fill:#8263f5;fill-opacity:1;fill-rule:nonzero;stroke:none"
             id="path128"
             inkscape:connector-curvature="0" /></g><g
           id="g130"
           transform="translate(287.8917,406.0363)"><path
             d="M 0,0 16.488,-17.4 32.977,0 H 25.863 V 23.089 H 7.114 V 0 Z"
             style="fill:#b49cf8;fill-opacity:1;fill-rule:nonzero;stroke:none"
             id="path132"
             inkscape:connector-curvature="0" /></g><g
           id="g138"
           transform="translate(199.2836,422.3095)" /><g
           id="g142"
           transform="translate(188.6922,392.8673)" /><g
           id="g150"
           transform="translate(192.5609,392.8673)" /><g
           id="g154"
           transform="translate(192.6632,422.2879)" /><g
           id="g158"
           transform="translate(200.1241,449.0054)" /><g
           id="g162"
           transform="translate(202.8798,442.9705)" /><g
           id="g166"
           transform="translate(158.7966,421.7929)" /><g
           id="g170"
           transform="translate(155.415,440.5038)" /><g
           id="g174"
           transform="translate(162.1631,457.1119)" /><g
           id="g178"
           transform="translate(209.8555,421.7929)" /><g
           id="g182"
           transform="translate(213.2371,440.5038)" /><g
           id="g186"
           transform="translate(206.489,457.1119)" /><g
           id="g5042"><g
             transform="translate(206.2913,436.6137)"
             id="g134"><path
               inkscape:connector-curvature="0"
               id="path136"
               style="fill:#b49cf8;fill-opacity:1;fill-rule:nonzero;stroke:none"
               d="M 0,0 C 0,13.228 -11.479,23.776 -25.019,22.224 -34.965,21.085 -43.117,13.18 -44.52,3.268 c -1.062,-7.5 1.6,-14.412 6.405,-19.165 4.746,-4.695 7.191,-11.242 7.191,-17.918 h 17.096 c 0,6.823 2.731,13.33 7.491,18.22 C -2.416,-11.567 0,-6.067 0,0" /></g><path
             d="m 199.2833,422.3097 c -7.771,-2.463 -16.984,-1.724 -23.091,3.677 -3.812,3.372 -6.089,8.255 -6.93,13.275 -0.821,4.903 -0.353,9.944 0.682,14.809 -4.324,-3.467 -7.367,-8.492 -8.173,-14.188 -1.062,-7.501 1.6,-14.413 6.404,-19.166 4.747,-4.695 7.192,-11.242 7.192,-17.918 h 17.096 c 0,6.823 2.731,13.33 7.49,18.22 0.675,0.693 1.287,1.445 1.869,2.221 -0.834,-0.338 -1.677,-0.657 -2.539,-0.93"
             style="display:inline;fill:#8263f5;fill-opacity:1;fill-rule:nonzero;stroke:none"
             id="path140"
             inkscape:connector-curvature="0" /><g
             transform="translate(192.5609,399.4042)"
             id="g146"><path
               inkscape:connector-curvature="0"
               id="path148"
               style="fill:#b49cf8;fill-opacity:1;fill-rule:nonzero;stroke:none"
               d="m 0,0 h -17.291 c -1.329,0 -2.417,1.087 -2.417,2.417 v 1.954 c 0,1.33 1.088,2.417 2.417,2.417 L 0,6.788 c 1.329,0 2.417,-1.087 2.417,-2.417 V 2.417 C 2.417,1.087 1.329,0 0,0" /></g><path
             d="m 229.82597,429.83324 c 0,-25.129 -20.371,-45.5 -45.5,-45.5 -25.129,0 -45.5,20.371 -45.5,45.5 0,25.129 20.371,45.5 45.5,45.5 25.129,0 45.5,-20.371 45.5,-45.5"
             style="display:inline;fill:#9256b6;fill-opacity:0.46666667;fill-rule:nonzero;stroke:none"
             id="path36"
             inkscape:connector-curvature="0" /><path
             d="m 188.6919,392.8675 c 0,-2.638 -2.139,-4.777 -4.777,-4.777 -2.638,0 -4.777,2.139 -4.777,4.777 0,2.638 2.139,4.777 4.777,4.777 2.638,0 4.777,-2.139 4.777,-4.777"
             style="display:inline;fill:#8263f5;fill-opacity:1;fill-rule:nonzero;stroke:none"
             id="path144"
             inkscape:connector-curvature="0" /><path
             d="m 192.5606,392.8675 h -17.291 c -1.329,0 -2.417,1.088 -2.417,2.417 v 1.954 c 0,1.33 1.088,2.417 2.417,2.417 h 17.291 c 1.329,0 2.417,-1.087 2.417,-2.417 v -1.954 c 0,-1.329 -1.088,-2.417 -2.417,-2.417"
             style="display:inline;fill:#b49cf8;fill-opacity:1;fill-rule:nonzero;stroke:none"
             id="path152"
             inkscape:connector-curvature="0" /><path
             d="m 192.6629,422.2881 c -0.035,0.758 -0.726,1.348 -1.491,1.136 -1.653,-0.459 -2.913,-1.371 -4.197,-2.483 -0.177,-0.154 -2.6,-2.679 -2.89,-1.783 -0.254,0.783 -0.522,1.491 -0.906,2.218 -0.379,0.718 -1.52,0.715 -1.9,0 -0.462,-0.869 -0.809,-1.811 -1.304,-2.664 -1.43,1.281 -2.91,2.438 -4.649,3.331 -0.954,0.489 -1.837,-0.475 -1.403,-1.403 1.282,-2.741 3.716,-7.951 3.184,-11.035 -0.099,-0.572 0.682,-0.995 0.991,-0.418 0.772,1.44 0.214,3.251 -0.106,4.75 -0.329,1.549 -0.72,3.135 -1.197,4.68 0.904,-0.702 1.759,-1.47 2.6,-2.281 0.392,-0.378 1.139,-0.456 1.52,0 0.46,0.552 0.815,1.145 1.141,1.753 0.374,-0.982 0.903,-1.854 1.974,-1.854 2.35,0 4.108,2.64 6.157,4.092 -0.473,-3.613 -2.224,-7.287 -1.521,-10.769 0.149,-0.734 1.312,-0.906 1.638,-0.214 1.702,3.618 2.542,8.937 2.359,12.944"
             style="display:inline;fill:#ac83e9;fill-opacity:1;fill-rule:nonzero;stroke:none"
             id="path156"
             inkscape:connector-curvature="0" /><path
             d="m 200.1238,449.0056 c -1.203,2.547 -3.923,4.186 -6.258,5.59 -2.265,1.36 -5.446,2.623 -8.067,1.677 -0.771,-0.279 -0.734,-1.239 0,-1.531 2.267,-0.899 4.309,-1.705 6.356,-3.074 2.104,-1.407 3.712,-3.55 6.056,-4.576 1.296,-0.567 2.539,0.587 1.913,1.914"
             style="display:inline;fill:#cecee9;fill-opacity:1;fill-rule:nonzero;stroke:none"
             id="path160"
             inkscape:connector-curvature="0" /><path
             d="m 202.8795,442.9707 c -0.172,0.812 -0.303,1.623 -1.049,2.086 -0.295,0.182 -0.735,0.134 -0.971,-0.126 -0.585,-0.64 -0.538,-1.494 -0.632,-2.319 -0.105,-0.921 -0.224,-1.975 0.116,-2.855 0.259,-0.672 0.749,-1.116 1.497,-1.141 0.289,-0.009 0.539,0.06 0.784,0.213 0.452,0.28 0.792,0.789 0.769,1.34 -0.041,0.936 -0.32,1.885 -0.514,2.802"
             style="display:inline;fill:#cecee9;fill-opacity:1;fill-rule:nonzero;stroke:none"
             id="path164"
             inkscape:connector-curvature="0" /><path
             d="m 158.7963,421.7931 c -0.876,-0.25 -1.568,-0.775 -2.276,-1.329 -0.785,-0.614 -1.47,-1.076 -1.815,-2.05 -0.392,-1.109 0.815,-2.182 1.875,-1.875 0.879,0.255 1.317,0.834 1.878,1.509 0.558,0.672 1.177,1.306 1.642,2.049 0.54,0.865 -0.346,1.97 -1.304,1.696"
             style="display:inline;fill:#b49cf8;fill-opacity:1;fill-rule:nonzero;stroke:none"
             id="path168"
             inkscape:connector-curvature="0" /><path
             d="m 155.4147,440.504 c -0.976,0.46 -1.99,0.483 -3.05,0.569 -1.099,0.089 -2.147,0.494 -3.229,0.551 -0.788,0.041 -1.263,-0.765 -1.114,-1.462 0.6,-2.8 5.349,-1.532 7.198,-1.151 0.668,0.137 0.828,1.195 0.195,1.493"
             style="display:inline;fill:#b49cf8;fill-opacity:1;fill-rule:nonzero;stroke:none"
             id="path172"
             inkscape:connector-curvature="0" /><path
             d="m 162.1628,457.1121 c -0.711,0.847 -1.501,1.617 -2.243,2.435 -0.727,0.802 -1.344,1.601 -2.231,2.239 -0.773,0.555 -1.647,-0.355 -1.477,-1.136 0.485,-2.236 3.157,-3.751 5.045,-4.712 0.779,-0.397 1.45,0.525 0.906,1.174"
             style="display:inline;fill:#b49cf8;fill-opacity:1;fill-rule:nonzero;stroke:none"
             id="path176"
             inkscape:connector-curvature="0" /><path
             d="m 209.8552,421.7931 c 0.876,-0.25 1.568,-0.775 2.276,-1.329 0.785,-0.614 1.47,-1.076 1.815,-2.05 0.392,-1.109 -0.815,-2.182 -1.875,-1.875 -0.879,0.255 -1.317,0.834 -1.878,1.509 -0.558,0.672 -1.177,1.306 -1.642,2.049 -0.54,0.865 0.347,1.97 1.304,1.696"
             style="display:inline;fill:#b49cf8;fill-opacity:1;fill-rule:nonzero;stroke:none"
             id="path180"
             inkscape:connector-curvature="0" /><path
             d="m 213.2368,440.504 c 0.976,0.46 1.99,0.483 3.05,0.569 1.099,0.089 2.147,0.494 3.229,0.551 0.788,0.041 1.263,-0.765 1.114,-1.462 -0.6,-2.8 -5.349,-1.532 -7.198,-1.151 -0.668,0.137 -0.828,1.195 -0.195,1.493"
             style="display:inline;fill:#b49cf8;fill-opacity:1;fill-rule:nonzero;stroke:none"
             id="path184"
             inkscape:connector-curvature="0" /><path
             d="m 206.4887,457.1121 c 0.711,0.847 1.501,1.617 2.243,2.435 0.727,0.802 1.344,1.601 2.231,2.239 0.773,0.555 1.647,-0.355 1.477,-1.136 -0.485,-2.236 -3.157,-3.751 -5.045,-4.712 -0.779,-0.397 -1.45,0.525 -0.906,1.174"
             style="display:inline;fill:#b49cf8;fill-opacity:1;fill-rule:nonzero;stroke:none"
             id="path188"
             inkscape:connector-curvature="0" /><path
             d="m 182.7341,471.4615 c -0.335,0.212 -0.823,0.212 -1.158,0 -1.41,-0.889 -0.943,-2.44 -0.767,-3.853 0.143,-1.148 0.027,-2.906 0.974,-3.711 0.232,-0.198 0.512,-0.198 0.744,0 0.947,0.805 0.831,2.563 0.974,3.711 0.176,1.413 0.643,2.964 -0.767,3.853"
             style="fill:#b49cf8;fill-opacity:1;fill-rule:nonzero;stroke:none"
             id="path192"
             inkscape:connector-curvature="0" /></g><g
           id="g194"
           transform="translate(94.8255,316.0041)"><path
             d="m 0,0 c 0,-6.518 -5.283,-11.801 -11.801,-11.801 h -6.973 c -6.518,0 -11.802,5.283 -11.802,11.801 v 15.717 c 0,6.517 5.284,11.801 11.802,11.801 h 6.973 C -5.283,27.518 0,22.234 0,15.717 Z m -10.244,36.3 h -10.088 c -9.429,0 -17.073,-7.643 -17.073,-17.072 V -3.51 c 0,-9.43 7.644,-17.073 17.073,-17.073 h 10.088 c 9.429,0 17.073,7.643 17.073,17.073 v 22.738 c 0,9.429 -7.644,17.072 -17.073,17.072"
             style="fill:#b49cf8;fill-opacity:1;fill-rule:nonzero;stroke:none"
             id="path196"
             inkscape:connector-curvature="0" /></g><g
           id="g198"
           transform="translate(100.956,320.9522)"><path
             d="m 0,0 h -42.837 c -3.729,0 -6.751,-3.023 -6.751,-6.751 v -33.525 c 0,-3.729 3.022,-6.751 6.751,-6.751 H 0 c 3.729,0 6.751,3.022 6.751,6.751 V -6.751 C 6.751,-3.023 3.729,0 0,0"
             style="fill:#b49cf8;fill-opacity:1;fill-rule:nonzero;stroke:none"
             id="path200"
             inkscape:connector-curvature="0" /></g><g
           id="g202"
           transform="translate(74.5579,288.2497)"><path
             d="m 0,0 c -11.319,6.096 -20.14,17.47 -21.738,30.088 -0.896,-1.146 -1.452,-2.57 -1.452,-4.137 V -7.574 c 0,-3.728 3.023,-6.751 6.751,-6.751 h 42.837 c 3.729,0 6.752,3.023 6.752,6.751 v 1.363 C 21.699,-7.052 10.049,-5.412 0,0"
             style="fill:#8263f5;fill-opacity:1;fill-rule:nonzero;stroke:none"
             id="path204"
             inkscape:connector-curvature="0" /></g><g
           id="g206"
           transform="translate(87.9963,303.8795)"><path
             d="m 0,0 c 0,-4.672 -3.787,-8.459 -8.459,-8.459 -4.671,0 -8.458,3.787 -8.458,8.459 0,4.672 3.787,8.459 8.458,8.459 C -3.787,8.459 0,4.672 0,0"
             style="fill:#7243d0;fill-opacity:1;fill-rule:nonzero;stroke:none"
             id="path208"
             inkscape:connector-curvature="0" /></g><g
           id="g210"
           transform="translate(80.0959,284.0131)"><path
             d="M 0,0 H -1.117 C -3.251,0 -4.982,1.73 -4.982,3.865 V 14.76 c 0,2.134 1.731,3.865 3.865,3.865 H 0 c 2.135,0 3.865,-1.731 3.865,-3.865 V 3.865 C 3.865,1.73 2.135,0 0,0"
             style="fill:#7243d0;fill-opacity:1;fill-rule:nonzero;stroke:none"
             id="path212"
             inkscape:connector-curvature="0" /></g><g
           id="g214"
           transform="translate(80.0653,157.8209)" /><g
           id="g218"
           transform="translate(91.2773,124.4124)" /><g
           id="g222"
           transform="translate(37.9494,129.2773)" /><g
           id="g226"
           transform="translate(58.1622,129.2773)" /><g
           id="g230"
           transform="translate(77.9802,129.2773)" /><g
           id="g234"
           transform="translate(116.6248,180.1297)" /><g
           id="g238"
           transform="translate(127.8368,146.7212)" /><g
           id="g242"
           transform="translate(74.5089,151.5861)" /><g
           id="g246"
           transform="translate(94.7218,151.5861)" /><g
           id="g250"
           transform="translate(114.5397,151.5861)"><g
             id="g4829"><path
               inkscape:connector-curvature="0"
               id="path48"
               style="display:inline;fill:#9256b6;fill-opacity:0.46666667;fill-rule:nonzero;stroke:none"
               d="M 0,0 C 0,-25.129 -20.371,-45.5 -45.5,-45.5 -70.629,-45.5 -91,-25.129 -91,0 -91,25.129 -70.629,45.5 -45.5,45.5 -20.371,45.5 0,25.129 0,0"
               transform="translate(9.4603006,-5.2805963)" /><path
               inkscape:connector-curvature="0"
               id="path216"
               style="display:inline;fill:#b49cf8;fill-opacity:1;fill-rule:nonzero;stroke:none"
               d="m 0,0 h -44.201 c -6.192,0 -11.212,-5.02 -11.212,-11.212 v -23.286 c 0,-6.193 5.02,-11.212 11.212,-11.212 h 29.742 l 7.344,-12.72 7.35,12.731 c 6.083,0.127 10.977,5.088 10.977,11.201 v 23.286 C 11.212,-5.02 6.192,0 0,0"
               transform="translate(-34.4744,6.2347989)" /><path
               inkscape:connector-curvature="0"
               id="path220"
               style="display:inline;fill:#8263f5;fill-opacity:1;fill-rule:nonzero;stroke:none"
               d="m 0,0 c -4.712,-1.703 -9.516,-3.129 -14.422,-4.139 -9.704,-1.998 -19.848,-2.34 -29.484,-0.041 -3.745,0.893 -7.385,2.175 -11.016,3.454 -3.495,1.232 -7.081,2.516 -9.876,4.949 -0.674,0.588 -1.289,1.263 -1.827,1.994 V -1.09 c 0,-6.192 5.02,-11.212 11.212,-11.212 h 29.742 l 7.344,-12.719 7.35,12.731 C -4.894,-12.164 0,-7.203 0,-1.09 Z"
               transform="translate(-23.262403,-27.173697)" /><path
               inkscape:connector-curvature="0"
               id="path224"
               style="display:inline;fill:#ffffff;fill-opacity:1;fill-rule:nonzero;stroke:none"
               d="m 0,0 c -1.77,0 -3.247,-1.477 -3.247,-3.247 0,-1.77 1.477,-3.247 3.247,-3.247 1.77,0 3.247,1.477 3.247,3.247 C 3.247,-1.477 1.77,0 0,0"
               transform="translate(-76.5903,-22.308799)" /><path
               inkscape:connector-curvature="0"
               id="path228"
               style="display:inline;fill:#ffffff;fill-opacity:1;fill-rule:nonzero;stroke:none"
               d="m 0,0 c -1.77,0 -3.247,-1.477 -3.247,-3.247 0,-1.77 1.477,-3.247 3.247,-3.247 1.77,0 3.247,1.477 3.247,3.247 C 3.247,-1.477 1.77,0 0,0"
               transform="translate(-56.3775,-22.308799)" /><path
               inkscape:connector-curvature="0"
               id="path232"
               style="display:inline;fill:#ffffff;fill-opacity:1;fill-rule:nonzero;stroke:none"
               d="m 0,0 c -1.77,0 -3.247,-1.477 -3.247,-3.247 0,-1.77 1.477,-3.247 3.247,-3.247 1.77,0 3.247,1.477 3.247,3.247 C 3.247,-1.477 1.77,0 0,0"
               transform="translate(-36.559498,-22.308799)" /><path
               inkscape:connector-curvature="0"
               id="path236"
               style="display:inline;fill:#8b61d8;fill-opacity:1;fill-rule:nonzero;stroke:none"
               d="m 0,0 h -44.201 c -6.192,0 -11.212,-5.02 -11.212,-11.212 v -23.286 c 0,-6.193 5.02,-11.212 11.212,-11.212 h 29.742 l 7.344,-12.72 7.35,12.731 c 6.083,0.127 10.977,5.088 10.977,11.201 v 23.286 C 11.212,-5.02 6.192,0 0,0"
               transform="translate(2.0851004,28.543602)" /><path
               inkscape:connector-curvature="0"
               id="path240"
               style="display:inline;fill:#7243d0;fill-opacity:1;fill-rule:nonzero;stroke:none"
               d="m 0,0 c -4.712,-1.703 -9.516,-3.129 -14.422,-4.139 -9.704,-1.998 -19.848,-2.34 -29.484,-0.042 -3.745,0.894 -7.385,2.176 -11.016,3.455 -3.495,1.232 -7.081,2.516 -9.876,4.949 -0.674,0.587 -1.289,1.262 -1.827,1.994 V -1.09 c 0,-6.192 5.02,-11.212 11.212,-11.212 h 29.742 l 7.344,-12.719 7.35,12.731 C -4.894,-12.164 0,-7.203 0,-1.09 Z"
               transform="translate(13.297098,-4.8649013)" /><path
               inkscape:connector-curvature="0"
               id="path244"
               style="display:inline;fill:#ffffff;fill-opacity:1;fill-rule:nonzero;stroke:none"
               d="m 0,0 c -1.77,0 -3.247,-1.477 -3.247,-3.247 0,-1.77 1.477,-3.247 3.247,-3.247 1.77,0 3.247,1.477 3.247,3.247 C 3.247,-1.477 1.77,0 0,0"
               transform="translate(-40.0308,-3.7103476e-6)" /><path
               inkscape:connector-curvature="0"
               id="path248"
               style="display:inline;fill:#ffffff;fill-opacity:1;fill-rule:nonzero;stroke:none"
               d="m 0,0 c -1.77,0 -3.247,-1.477 -3.247,-3.247 0,-1.77 1.477,-3.247 3.247,-3.247 1.77,0 3.247,1.477 3.247,3.247 C 3.247,-1.477 1.77,0 0,0"
               transform="translate(-19.8179,-3.7103476e-6)" /><path
               inkscape:connector-curvature="0"
               id="path252"
               style="fill:#ffffff;fill-opacity:1;fill-rule:nonzero;stroke:none"
               d="m 0,0 c -1.77,0 -3.247,-1.477 -3.247,-3.247 0,-1.77 1.477,-3.247 3.247,-3.247 1.77,0 3.247,1.477 3.247,3.247 C 3.247,-1.477 1.77,0 0,0" /></g></g><g
           id="g254"
           transform="translate(438.9661,310.0975)" /><g
           id="g258"
           transform="translate(434.6796,310.0975)" /><g
           id="g262"
           transform="translate(431.5622,310.0975)" /><g
           id="g266"
           transform="translate(373.1492,311.6077)" /><g
           id="g270"
           transform="translate(398.4561,307.8058)" /><g
           id="g274"
           transform="translate(404.388,329.1858)"><g
             id="g4902"><path
               inkscape:connector-curvature="0"
               id="path256"
               style="display:inline;fill:#b49cf8;fill-opacity:1;fill-rule:nonzero;stroke:none"
               d="m 0,0 c 0,-20.23 -16.4,-36.63 -36.63,-36.63 -20.23,0 -36.629,16.4 -36.629,36.63 0,20.23 16.399,36.63 36.629,36.63 C -16.4,36.63 0,20.23 0,0"
               transform="translate(34.578101,-19.088302)" /><path
               inkscape:connector-curvature="0"
               id="path260"
               style="display:inline;fill:#8263f5;fill-opacity:1;fill-rule:nonzero;stroke:none"
               d="m 0,0 c 0,-17.863 -14.48,-32.343 -32.343,-32.343 -17.863,0 -32.343,14.48 -32.343,32.343 0,17.863 14.48,32.343 32.343,32.343 C -14.48,32.343 0,17.863 0,0"
               transform="translate(30.291603,-19.088302)" /><path
               inkscape:connector-curvature="0"
               id="path264"
               style="display:inline;fill:#b49cf8;fill-opacity:1;fill-rule:nonzero;stroke:none"
               d="m 0,0 c 0,-16.141 -13.085,-29.226 -29.226,-29.226 -16.141,0 -29.225,13.085 -29.225,29.226 0,16.141 13.084,29.226 29.225,29.226 C -13.085,29.226 0,16.141 0,0"
               transform="translate(27.174198,-19.088302)" /><path
               inkscape:connector-curvature="0"
               id="path268"
               style="display:inline;fill:#d8ccfc;fill-opacity:1;fill-rule:nonzero;stroke:none"
               d="m 0,0 c 2.952,1.79 5.915,3.544 8.661,5.418 7.484,5.107 14.888,10.325 22.344,15.47 2.519,1.738 5.036,3.516 7.569,5.278 -2.947,1 -6.102,1.55 -9.387,1.55 -1.083,0 -2.152,-0.064 -3.205,-0.179 C 23.601,25.701 21.22,23.864 18.857,22.001 13.029,17.408 7.228,12.77 1.549,7.991 0.681,5.465 0.142,2.786 0,0"
               transform="translate(-31.238803,-17.578102)" /><path
               inkscape:connector-curvature="0"
               id="path272"
               style="display:inline;fill:#d8ccfc;fill-opacity:1;fill-rule:nonzero;stroke:none"
               d="m 0,0 c 9.163,6.574 18.568,12.706 28.112,18.637 -2.161,3.197 -4.942,5.939 -8.165,8.065 -0.135,-0.084 -0.27,-0.164 -0.405,-0.248 C 11.19,21.277 3.29,15.355 -4.473,9.343 -11.027,4.267 -17.416,-1.166 -24.128,-6.06 c 0.853,-2.863 2.127,-5.544 3.759,-7.966 C -13.2,-10.068 -6.619,-4.749 0,0"
               transform="translate(-5.9318975,-21.380002)" /><path
               inkscape:connector-curvature="0"
               id="path276"
               style="fill:#8263f5;fill-opacity:1;fill-rule:nonzero;stroke:none"
               d="m 0,0 c 5.365,-0.661 7.827,-4.303 7.827,-9.489 v -1.047 H 3.219 v 1.323 c 0,3.421 -1.577,5.517 -5.113,5.517 -3.471,0 -5.049,-2.096 -5.049,-5.517 0,-8.662 14.833,-8.717 14.833,-19.585 0,-5.186 -2.525,-8.882 -7.89,-9.544 v -2.924 h -4.04 v 2.924 c -5.49,0.662 -7.953,4.304 -7.953,9.544 v 2.372 h 4.608 v -2.647 c 0,-3.476 1.641,-5.462 5.176,-5.462 3.598,0 5.176,1.986 5.176,5.462 0,8.605 -14.77,8.716 -14.77,19.584 0,5.297 2.462,8.772 7.763,9.489 V 3.089 H 0 Z" /></g></g><g
           id="g278"
           transform="translate(422.9929,159.162)" /><g
           id="g282"
           transform="translate(422.9929,159.162)" /><g
           id="g286"
           transform="translate(423.0172,206.0811)" /><g
           id="g290"
           transform="translate(393.743,114.7687)" /><g
           id="g294"
           transform="translate(393.743,114.7687)" /><g
           id="g298"
           transform="translate(393.7673,161.6879)" /><g
           id="g302"
           transform="translate(451.743,114.7687)" /><g
           id="g306"
           transform="translate(451.743,114.7687)" /><g
           id="g310"
           transform="translate(451.7673,161.6879)"><g
             id="g4870"><path
               inkscape:connector-curvature="0"
               id="path52"
               style="display:inline;fill:#9256b6;fill-opacity:0.46666667;fill-rule:nonzero;stroke:none"
               d="M 0,0 C 0,-25.129 -20.371,-45.5 -45.5,-45.5 -70.629,-45.5 -91,-25.129 -91,0 -91,25.129 -70.629,45.5 -45.5,45.5 -20.371,45.5 0,25.129 0,0"
               transform="translate(16.732699,-6.3824036)" /><path
               inkscape:connector-curvature="0"
               id="path280"
               style="display:inline;fill:#c2c2e5;fill-opacity:1;fill-rule:nonzero;stroke:none"
               d="M 0,0 -20.75,12.347 V 34.366 L 0,22.019 Z"
               transform="translate(-28.774399,-2.5259035)" /><path
               inkscape:connector-curvature="0"
               id="path284"
               style="display:inline;fill:#999cce;fill-opacity:1;fill-rule:nonzero;stroke:none"
               d="M 0,0 20.75,12.347 V 34.366 L 0,22.019 Z"
               transform="translate(-28.774399,-2.5259035)" /><path
               inkscape:connector-curvature="0"
               id="path288"
               style="display:inline;fill:#ffffff;fill-opacity:1;fill-rule:nonzero;stroke:none"
               d="m 0,0 -20.731,-12.568 20.682,-12.538 20.731,12.568 z"
               transform="translate(-28.750099,44.393198)" /><path
               inkscape:connector-curvature="0"
               id="path292"
               style="display:inline;fill:#c2c2e5;fill-opacity:1;fill-rule:nonzero;stroke:none"
               d="M 0,0 -20.75,12.347 V 34.366 L 0,22.019 Z"
               transform="translate(-58.024303,-46.9192)" /><path
               inkscape:connector-curvature="0"
               id="path296"
               style="display:inline;fill:#999cce;fill-opacity:1;fill-rule:nonzero;stroke:none"
               d="M 0,0 20.75,12.347 V 34.366 L 0,22.019 Z"
               transform="translate(-58.024303,-46.9192)" /><path
               inkscape:connector-curvature="0"
               id="path300"
               style="display:inline;fill:#ffffff;fill-opacity:1;fill-rule:nonzero;stroke:none"
               d="m 0,0 -20.731,-12.568 20.682,-12.538 20.731,12.568 z"
               transform="translate(-58.000003)" /><path
               inkscape:connector-curvature="0"
               id="path304"
               style="display:inline;fill:#c2c2e5;fill-opacity:1;fill-rule:nonzero;stroke:none"
               d="M 0,0 -20.75,12.347 V 34.366 L 0,22.019 Z"
               transform="translate(-0.02430371,-46.9192)" /><path
               inkscape:connector-curvature="0"
               id="path308"
               style="display:inline;fill:#999cce;fill-opacity:1;fill-rule:nonzero;stroke:none"
               d="M 0,0 20.75,12.347 V 34.366 L 0,22.019 Z"
               transform="translate(-0.02430371,-46.9192)" /><path
               inkscape:connector-curvature="0"
               id="path312"
               style="fill:#ffffff;fill-opacity:1;fill-rule:nonzero;stroke:none"
               d="m 0,0 -20.731,-12.568 20.682,-12.538 20.731,12.568 z" /></g></g><g
           id="g314"
           transform="translate(185.6094,376.8055)"><path
             d="M 0,0 20.682,-62.662"
             style="fill:none;stroke:#b384e1;stroke-width:2.00004142;stroke-linecap:round;stroke-linejoin:round;stroke-miterlimit:10;stroke-dasharray:2.00004142, 4.00008283000000020;stroke-opacity:1;stroke-dashoffset:0;opacity:0.5"
             id="path316"
             inkscape:connector-curvature="0" /></g><g
           id="g318"
           transform="translate(122.75,300.4019)"><path
             d="M 0,0 46.091,-9.459"
             style="fill:none;stroke:#b384e1;stroke-width:2.00004142;stroke-linecap:round;stroke-linejoin:round;stroke-miterlimit:10;stroke-dasharray:2.00004142, 4.00008283000000020;stroke-opacity:1;stroke-dashoffset:0;opacity:0.5"
             id="path320"
             inkscape:connector-curvature="0" /></g><g
           id="g322"
           transform="translate(304.3802,376.8055)"><path
             d="M 0,0 C -0.047,0.667 -36.714,-62.662 -36.714,-62.662"
             style="fill:none;stroke:#b384e1;stroke-width:2.00004142;stroke-linecap:round;stroke-linejoin:round;stroke-miterlimit:10;stroke-dasharray:2.00004142, 4.00008283000000020;stroke-opacity:1;stroke-dashoffset:0;opacity:0.5"
             id="path324"
             inkscape:connector-curvature="0" /></g><g
           id="g326"
           transform="translate(308.5124,284.0131)"><path
             d="M 0,0 48.488,12.163"
             style="fill:none;stroke:#b384e1;stroke-width:2.00004142;stroke-linecap:round;stroke-linejoin:round;stroke-miterlimit:10;stroke-dasharray:2.00004142, 4.00008283000000020;stroke-opacity:1;stroke-dashoffset:0;opacity:0.5"
             id="path328"
             inkscape:connector-curvature="0" /></g><g
           id="g330"
           transform="translate(311.7603,207.313)"><path
             d="M 0,0 62.568,-28.883"
             style="fill:none;stroke:#b384e1;stroke-width:2.00004142;stroke-linecap:round;stroke-linejoin:round;stroke-miterlimit:10;stroke-dasharray:2.00004142, 4.00008283000000020;stroke-opacity:1;stroke-dashoffset:0;opacity:0.5"
             id="path332"
             inkscape:connector-curvature="0" /></g><g
           id="g342"
           transform="translate(237,346.8055)"><path
             d="m 0,0 c 0,-1.657 -1.343,-3 -3,-3 -1.657,0 -3,1.343 -3,3 0,1.657 1.343,3 3,3 1.657,0 3,-1.343 3,-3"
             style="fill:#ffffff;fill-opacity:1;fill-rule:nonzero;stroke:none"
             id="path344"
             inkscape:connector-curvature="0" /></g><g
           id="g358"
           transform="translate(146,229.8055)"><path
             d="M 0,0 C 0,-1.381 -1.119,-2.5 -2.5,-2.5 -3.881,-2.5 -5,-1.381 -5,0 -5,1.381 -3.881,2.5 -2.5,2.5 -1.119,2.5 0,1.381 0,0"
             style="fill:#ffffff;fill-opacity:1;fill-rule:nonzero;stroke:none"
             id="path360"
             inkscape:connector-curvature="0" /></g><g
           id="g362"
           transform="translate(153.5,133.3055)"><path
             d="M 0,0 C 0,-2.485 -2.015,-4.5 -4.5,-4.5 -6.985,-4.5 -9,-2.485 -9,0 -9,2.485 -6.985,4.5 -4.5,4.5 -2.015,4.5 0,2.485 0,0"
             style="fill:#ffffff;fill-opacity:1;fill-rule:nonzero;stroke:none"
             id="path364"
             inkscape:connector-curvature="0" /></g><g
           id="g370"
           transform="translate(126.1667,120.8055)"><path
             d="m 0,0 c 0,-1.841 -1.492,-3.333 -3.333,-3.333 -1.841,0 -3.334,1.492 -3.334,3.333 0,1.841 1.493,3.333 3.334,3.333 C -1.492,3.333 0,1.841 0,0"
             style="fill:#ffffff;fill-opacity:1;fill-rule:nonzero;stroke:none"
             id="path372"
             inkscape:connector-curvature="0" /></g><g
           id="g378"
           transform="translate(359,164.3055)"><path
             d="m 0,0 c 0,-1.105 -0.895,-2 -2,-2 -1.105,0 -2,0.895 -2,2 0,1.105 0.895,2 2,2 1.105,0 2,-0.895 2,-2"
             style="fill:#ffffff;fill-opacity:1;fill-rule:nonzero;stroke:none"
             id="path380"
             inkscape:connector-curvature="0" /></g><g
           id="g386"
           transform="translate(328,233.8055)"><path
             d="m 0,0 c 0,-2.209 -1.791,-4 -4,-4 -2.209,0 -4,1.791 -4,4 0,2.209 1.791,4 4,4 2.209,0 4,-1.791 4,-4"
             style="fill:#ffffff;fill-opacity:1;fill-rule:nonzero;stroke:none"
             id="path388"
             inkscape:connector-curvature="0" /></g><g
           id="g390"
           transform="translate(365,229.8055)"><path
             d="m 0,0 c 0,-3.314 -2.686,-6 -6,-6 -3.314,0 -6,2.686 -6,6 0,3.314 2.686,6 6,6 3.314,0 6,-2.686 6,-6"
             style="fill:#ffffff;fill-opacity:1;fill-rule:nonzero;stroke:none"
             id="path392"
             inkscape:connector-curvature="0" /></g><g
           id="g398"
           transform="translate(305,327.3055)"><path
             d="M 0,0 C 0,-1.381 -1.119,-2.5 -2.5,-2.5 -3.881,-2.5 -5,-1.381 -5,0 -5,1.381 -3.881,2.5 -2.5,2.5 -1.119,2.5 0,1.381 0,0"
             style="fill:#ffffff;fill-opacity:1;fill-rule:nonzero;stroke:none"
             id="path400"
             inkscape:connector-curvature="0" /></g></g></g><g
       clip-path="url(#clipPath760)"
       id="g756"><g
         transform="translate(187.1936,196.6389)"
         id="g766"><path
           inkscape:connector-curvature="0"
           id="path768"
           style="fill:#b49cf8;fill-opacity:1;fill-rule:nonzero;stroke:none"
           d="m 0,0 c -8.38,3.66 -17.382,5.889 -26.502,6.561 -5.826,0.43 -12.674,-0.286 -15.83,-5.202 -2.341,-3.646 -1.743,-8.608 0.47,-12.333 2.213,-3.725 5.778,-6.434 9.404,-8.806 11.689,-7.649 24.992,-12.817 38.779,-15.065 2.911,-0.475 6.059,-0.785 8.666,0.595 1.603,0.849 2.829,2.255 3.975,3.662 3.557,4.368 6.724,9.055 9.451,13.985" /></g><g
         transform="translate(192.6422,169.9047)"
         id="g770"><path
           inkscape:connector-curvature="0"
           id="path772"
           style="fill:#8263f5;fill-opacity:1;fill-rule:nonzero;stroke:none"
           d="m 0,0 c -0.908,0.969 -2.265,1.343 -3.548,1.684 -13.571,3.599 -27.429,8.271 -37.595,17.954 -2.641,2.516 -5.054,5.692 -6.111,9.101 -0.171,-0.22 -0.373,-0.405 -0.527,-0.645 -2.34,-3.647 -1.742,-8.608 0.471,-12.334 2.213,-3.725 5.778,-6.433 9.403,-8.806 C -26.218,-0.695 -12.914,-5.862 0.872,-8.11 1.103,-8.148 1.337,-8.182 1.57,-8.217 1.768,-6.399 1.687,-4.555 1.271,-2.749 1.041,-1.754 0.699,-0.745 0,0" /></g><g
         transform="translate(177.8023,87.2384)"
         id="g774"><path
           inkscape:connector-curvature="0"
           id="path776"
           style="fill:#8263f5;fill-opacity:1;fill-rule:nonzero;stroke:none"
           d="m 0,0 c 0,0 2.231,-16.952 13.383,-38.365 11.153,-21.414 17.399,-28.998 20.075,-38.812 2.677,-9.814 2.677,-21.859 2.677,-21.859 L 130.71,-94.129 103.051,2.23 43.719,17.398 -1.338,-1.785" /></g><g
         transform="translate(283.9764,302.7094)"
         id="g778"><path
           inkscape:connector-curvature="0"
           id="path780"
           style="fill:#ffffff;fill-opacity:1;fill-rule:nonzero;stroke:#eeeeee;stroke-opacity:1"
           d="m 0,0 h -88.776 c -9.116,0 -16.506,-7.39 -16.506,-16.506 v -202.98 c 0,-9.116 7.39,-16.506 16.506,-16.506 H 0 c 9.116,0 16.506,7.39 16.506,16.506 v 202.98 C 16.506,-7.39 9.116,0 0,0" /></g><g
         transform="translate(280.5213,293.118)"
         id="g782"><path
           inkscape:connector-curvature="0"
           id="path784"
           style="fill:#bfd6e2;fill-opacity:1;fill-rule:nonzero;stroke:none"
           d="m 0,0 h -81.866 c -8.406,0 -15.221,-6.79 -15.221,-15.165 v -186.48 c 0,-8.375 6.815,-15.164 15.221,-15.164 H 0 c 8.406,0 15.221,6.789 15.221,15.164 v 186.48 C 15.221,-6.79 8.406,0 0,0" /></g><g
         transform="translate(278.936,290.9432)"
         id="g786"><path
           inkscape:connector-curvature="0"
           id="path788"
           style="fill:#7243d0;fill-opacity:1;fill-rule:nonzero;stroke:none"
           d="m 0,0 h -78.695 c -8.081,0 -14.632,-6.653 -14.632,-14.86 v -182.739 c 0,-8.207 6.551,-14.861 14.632,-14.861 H 0 c 8.081,0 14.632,6.654 14.632,14.861 V -14.86 C 14.632,-6.653 8.081,0 0,0" /></g><g
         transform="translate(177.5793,166.4228)"
         id="g790"><path
           inkscape:connector-curvature="0"
           id="path792"
           style="fill:#b49cf8;fill-opacity:1;fill-rule:nonzero;stroke:none"
           d="m 0,0 c -10.926,3.237 -17.621,-22.083 -10.93,-26.097 6.692,-4.015 37.027,-17.399 46.396,-16.06 9.368,1.338 9.368,18.067 5.353,22.751 C 36.804,-14.722 18.067,-5.353 0,0" /></g><g
         transform="translate(171.5348,136.1576)"
         id="g794"><path
           inkscape:connector-curvature="0"
           id="path796"
           style="fill:#b49cf8;fill-opacity:1;fill-rule:nonzero;stroke:none"
           d="m 0,0 c -11.195,2.128 -17.765,-23.98 -10.706,-27.305 7.06,-3.326 41.024,-13.362 50.211,-11.093 9.187,2.269 7.514,18.914 3.05,23.173 C 38.092,-10.966 18.512,-3.519 0,0" /></g><g
         transform="translate(169.7345,108.544)"
         id="g798"><path
           inkscape:connector-curvature="0"
           id="path800"
           style="fill:#b49cf8;fill-opacity:1;fill-rule:nonzero;stroke:none"
           d="m 0,0 c -10.349,2.177 -16.917,-21.929 -10.427,-25.142 6.491,-3.213 37.822,-13.139 46.388,-11.2 8.565,1.939 7.314,17.414 3.249,21.446 C 35.146,-10.864 17.113,-3.6 0,0" /></g><g
         transform="translate(210.7057,135.2151)"
         id="g802"><path
           inkscape:connector-curvature="0"
           id="path804"
           style="fill:#8263f5;fill-opacity:1;fill-rule:nonzero;stroke:none"
           d="m 0,0 c -10.466,0.837 -21.211,1.747 -30.66,6.325 -6.132,2.97 -11.638,7.87 -14.775,13.809 -1.955,-6.239 -1.839,-13.093 1.379,-15.024 6.692,-4.015 37.027,-17.398 46.395,-16.06 4.829,0.69 7.155,5.471 7.739,10.582 C 6.722,-0.482 3.3,-0.264 0,0" /></g><g
         transform="translate(191.5344,107.8226)"
         id="g806"><path
           inkscape:connector-curvature="0"
           id="path808"
           style="fill:#8263f5;fill-opacity:1;fill-rule:nonzero;stroke:none"
           d="m 0,0 c -11.874,2.654 -23.262,7.972 -32.444,15.907 -1.891,-6.448 -1.647,-13.283 1.739,-14.877 7.06,-3.326 41.023,-13.362 50.21,-11.093 3.699,0.913 5.615,4.167 6.32,7.993 C 17.157,-2.475 8.461,-1.891 0,0" /></g><g
         transform="translate(185.2118,80.0804)"
         id="g810"><path
           inkscape:connector-curvature="0"
           id="path812"
           style="fill:#8263f5;fill-opacity:1;fill-rule:nonzero;stroke:none"
           d="m 0,0 c -10.584,2.185 -20.348,7.911 -27.615,15.898 -1.475,-5.558 -1.183,-11.144 1.711,-12.576 6.49,-3.214 37.822,-13.139 46.388,-11.2 3.794,0.859 5.656,4.375 6.206,8.375 C 17.828,-1.251 8.799,-1.816 0,0" /></g><g
         transform="translate(255.8715,203.2268)"
         id="g834"><path
           inkscape:connector-curvature="0"
           id="path836"
           style="fill:#8263f5;fill-opacity:1;fill-rule:nonzero;stroke:none"
           d="m 0,0 c -6.022,-17.398 20.744,-36.804 20.744,-36.804 -0.669,-18.737 8.699,-39.481 8.699,-39.481 -0.248,-0.247 -0.52,-0.499 -0.802,-0.753 4.303,1.643 8.779,2.826 13.342,3.485 -11.083,14.262 -16.574,32.756 -15.069,50.756 0.071,0.855 0.15,1.759 -0.225,2.532 -0.636,1.314 -2.266,1.722 -3.678,2.094 C 12.668,-15.446 4.55,-6.287 2.294,4.086 1.387,3.086 0.608,1.757 0,0" /></g><g
         transform="translate(238.8019,104.6366)"
         id="g838" /><g
         transform="translate(207.5304,290.9434)"
         id="g846"><path
           inkscape:connector-curvature="0"
           id="path848"
           style="fill:#8b61d8;fill-opacity:1;fill-rule:nonzero;stroke:none"
           d="M 0,0 C -7.397,-6.785 -14.698,-13.678 -21.921,-20.657 V -53.106 C -1.222,-35.404 19.477,-17.702 40.177,0 Z" /></g><g
         transform="translate(278.936,290.9434)"
         id="g850"><path
           inkscape:connector-curvature="0"
           id="path852"
           style="fill:#8b61d8;fill-opacity:1;fill-rule:nonzero;stroke:none"
           d="m 0,0 h -6.164 c -29.054,-22.658 -58.108,-45.316 -87.163,-67.973 v -19.522 c 34.786,27.477 69.844,54.591 105.141,81.376 C 9.153,-2.416 4.859,0 0,0" /></g><g
         transform="translate(249.3038,299.6707)"
         id="g862"><path
           inkscape:connector-curvature="0"
           id="path864"
           style="fill:#bfd6e2;fill-opacity:1;fill-rule:nonzero;stroke:none"
           d="m 0,0 c -7.064,-0.035 -14.127,-0.125 -21.194,-0.117 -2.116,0.003 -2.116,-3.278 0,-3.28 C -14.127,-3.389 -7.064,-3.48 0,-3.514 1.137,-3.52 1.702,-2.638 1.698,-1.757 1.702,-0.876 1.137,0.005 0,0" /></g><g
         transform="translate(258.3209,300.4019)"
         id="g866"><path
           inkscape:connector-curvature="0"
           id="path868"
           style="fill:#bfd6e2;fill-opacity:1;fill-rule:nonzero;stroke:none"
           d="M 0,0 C -2.725,0 -2.725,-4.226 0,-4.226 2.725,-4.226 2.725,0 0,0" /></g><g
         transform="translate(219.3421,300.4019)"
         id="g870"><path
           inkscape:connector-curvature="0"
           id="path872"
           style="fill:#bfd6e2;fill-opacity:1;fill-rule:nonzero;stroke:none"
           d="M 0,0 C -2.725,0 -2.725,-4.226 0,-4.226 2.725,-4.226 2.725,0 0,0" /></g><g
         id="g4795"
         transform="matrix(3.2305148,0,0,3.2305148,-790.92648,-221.4287)"><path
           style="fill:#c2c2e5;fill-rule:evenodd;stroke:none;stroke-width:0.75;fill-opacity:1"
           inkscape:connector-curvature="0"
           id="Combined-Shape"
           d="m 317.33127,131.77748 v 1.09756 h -7.23387 v 2.7439 h 7.23387 v 1.09757 h 2.78226 v -1.09757 h 7.23387 v -2.7439 h -7.23387 v -1.09756 h 7.23387 v -2.7439 h -17.25 v 2.7439 z" /><path
           style="fill:#c2c2e5;fill-rule:evenodd;stroke:none;stroke-width:0.75;fill-opacity:1"
           inkscape:connector-curvature="0"
           id="Shape"
           d="m 327.3474,127.93602 c -0.16057,-3.8499 -0.87628,-6.91183 -2.1467,-8.93402 -1.27089,-2.0226 -3.43347,-3.53412 -6.4783,-4.7855 -3.04531,1.25138 -5.20789,2.7629 -6.4783,4.7855 -1.27085,2.02219 -1.98656,5.08412 -2.1467,8.93402 h 3.09596 c -0.0601,-2.86285 0.36194,-5.16359 1.26656,-6.90137 0.90504,-1.73821 2.32873,-3.00589 4.26248,-3.80306 1.93331,0.79717 3.35743,2.06485 4.26205,3.80306 0.90462,1.73778 1.32709,4.03852 1.26655,6.90137 z" /></g><g
         transform="translate(272.8236,-10.4596)"
         id="g830"><path
           inkscape:connector-curvature="0"
           id="path832"
           style="fill:#b49cf8;fill-opacity:1;fill-rule:nonzero;stroke:none"
           d="m 0,0 c 0,0 -26.32,54.425 -18.29,89.222 8.03,34.796 24.759,42.157 30.781,48.18 0,0 -9.368,20.744 -8.699,39.48 0,0 -26.767,19.406 -20.744,36.804 6.022,17.399 28.105,-5.353 39.481,-8.03 11.375,-2.676 9.368,-35.465 24.089,-56.209 C 61.34,128.703 46.656,49.889 40.596,25.651 38.589,17.621 38.589,-0.446 38.589,-0.446" /></g></g></g></svg>