<?xml version="1.0" encoding="UTF-8" standalone="no"?>
<!-- Created with Inkscape (http://www.inkscape.org/) -->

<svg
   xmlns:dc="http://purl.org/dc/elements/1.1/"
   xmlns:cc="http://creativecommons.org/ns#"
   xmlns:rdf="http://www.w3.org/1999/02/22-rdf-syntax-ns#"
   xmlns:svg="http://www.w3.org/2000/svg"
   xmlns="http://www.w3.org/2000/svg"
   xmlns:sodipodi="http://sodipodi.sourceforge.net/DTD/sodipodi-0.dtd"
   xmlns:inkscape="http://www.inkscape.org/namespaces/inkscape"
   width="33.890415mm"
   height="2.8910501mm"
   viewBox="0 0 33.890415 2.8910501"
   version="1.1"
   id="svg5080"
   inkscape:version="0.92.1 r15371"
   sodipodi:docname="text_wallet.svg">
  <defs
     id="defs5074" />
  <sodipodi:namedview
     id="base"
     pagecolor="#ffffff"
     bordercolor="#666666"
     borderopacity="1.0"
     inkscape:pageopacity="0.0"
     inkscape:pageshadow="2"
     inkscape:zoom="0.35"
     inkscape:cx="-418.81226"
     inkscape:cy="19.749115"
     inkscape:document-units="mm"
     inkscape:current-layer="layer1"
     showgrid="false"
     inkscape:window-width="1366"
     inkscape:window-height="704"
     inkscape:window-x="0"
     inkscape:window-y="27"
     inkscape:window-maximized="1" />
  <metadata
     id="metadata5077">
    <rdf:RDF>
      <cc:Work
         rdf:about="">
        <dc:format>image/svg+xml</dc:format>
        <dc:type
           rdf:resource="http://purl.org/dc/dcmitype/StillImage" />
        <dc:title></dc:title>
      </cc:Work>
    </rdf:RDF>
  </metadata>
  <g
     inkscape:label="Layer 1"
     inkscape:groupmode="layer"
     id="layer1"
     transform="translate(-62.429792,-151.16757)">
    <path
       inkscape:connector-curvature="0"
       style="fill:#323743;stroke-width:0.26458332"
       d="m 67.051353,151.16757 -0.945789,2.89105 H 65.38693 l -0.636032,-1.95765 -0.656683,1.95765 h -0.714504 l -0.949919,-2.89105 h 0.693854 l 0.652552,2.032 0.681464,-2.032 h 0.619512 l 0.660813,2.04852 0.673203,-2.04852 z m 5.355683,2.27154 h -1.342277 l -0.256065,0.61951 h -0.685593 l 1.288585,-2.89105 h 0.660813 l 1.292715,2.89105 h -0.702113 z m -0.210634,-0.508 -0.458439,-1.10686 -0.458439,1.10686 z m 4.64531,-1.76354 h 0.669073 v 2.34588 h 1.449657 v 0.54517 h -2.11873 z m 5.669568,0 h 0.669073 v 2.34588 h 1.449658 v 0.54517 H 82.51128 Z m 7.908074,2.35414 v 0.53691 h -2.238505 v -2.89105 h 2.184813 v 0.53691 h -1.51987 v 0.62777 h 1.342276 v 0.52039 h -1.342276 v 0.66907 z m 4.306641,-1.80897 h -0.925137 v -0.54517 h 2.51935 v 0.54517 h -0.92514 v 2.34588 h -0.669073 z"
       id="Wallet" />
  </g>
</svg>
